<mxfile host="app.diagrams.net" modified="2020-10-06T05:45:07.224Z" agent="5.0 (Windows NT 10.0; Win64; x64) AppleWebKit/537.36 (KHTML, like Gecko) Chrome/85.0.4183.121 Safari/537.36 OPR/71.0.3770.198" etag="QiSb6bTgXYDLaXXk_qBe" version="13.7.7" type="github">
  <diagram id="C5RBs43oDa-KdzZeNtuy" name="Page-1">
    <mxGraphModel dx="832" dy="457" grid="1" gridSize="10" guides="1" tooltips="1" connect="1" arrows="1" fold="1" page="1" pageScale="1" pageWidth="2339" pageHeight="3300" math="0" shadow="0">
      <root>
        <mxCell id="WIyWlLk6GJQsqaUBKTNV-0" />
        <mxCell id="WIyWlLk6GJQsqaUBKTNV-1" parent="WIyWlLk6GJQsqaUBKTNV-0" />
        <mxCell id="ReeH3Xt1Pkfj4cLhiJu3-0" value="" style="rounded=0;whiteSpace=wrap;html=1;" vertex="1" parent="WIyWlLk6GJQsqaUBKTNV-1">
          <mxGeometry x="1160" y="970" width="120" height="60" as="geometry" />
        </mxCell>
        <mxCell id="ReeH3Xt1Pkfj4cLhiJu3-1" value="" style="rounded=0;whiteSpace=wrap;html=1;" vertex="1" parent="WIyWlLk6GJQsqaUBKTNV-1">
          <mxGeometry x="1330" y="1050" width="150" height="60" as="geometry" />
        </mxCell>
        <mxCell id="ReeH3Xt1Pkfj4cLhiJu3-2" value="" style="rounded=0;whiteSpace=wrap;html=1;" vertex="1" parent="WIyWlLk6GJQsqaUBKTNV-1">
          <mxGeometry x="940" y="690" width="120" height="60" as="geometry" />
        </mxCell>
        <mxCell id="ReeH3Xt1Pkfj4cLhiJu3-3" value="" style="rounded=0;whiteSpace=wrap;html=1;" vertex="1" parent="WIyWlLk6GJQsqaUBKTNV-1">
          <mxGeometry x="1260" y="640" width="120" height="60" as="geometry" />
        </mxCell>
        <mxCell id="ReeH3Xt1Pkfj4cLhiJu3-5" value="" style="rounded=0;whiteSpace=wrap;html=1;" vertex="1" parent="WIyWlLk6GJQsqaUBKTNV-1">
          <mxGeometry x="1230" y="860" width="120" height="60" as="geometry" />
        </mxCell>
        <mxCell id="ReeH3Xt1Pkfj4cLhiJu3-6" value="" style="rounded=0;whiteSpace=wrap;html=1;" vertex="1" parent="WIyWlLk6GJQsqaUBKTNV-1">
          <mxGeometry x="940" y="890" width="120" height="60" as="geometry" />
        </mxCell>
        <mxCell id="ReeH3Xt1Pkfj4cLhiJu3-4" value="" style="rounded=0;whiteSpace=wrap;html=1;" vertex="1" parent="WIyWlLk6GJQsqaUBKTNV-1">
          <mxGeometry x="1530" y="880" width="120" height="60" as="geometry" />
        </mxCell>
        <mxCell id="ReeH3Xt1Pkfj4cLhiJu3-8" value="Customer" style="text;html=1;strokeColor=none;fillColor=none;align=center;verticalAlign=middle;whiteSpace=wrap;rounded=0;" vertex="1" parent="WIyWlLk6GJQsqaUBKTNV-1">
          <mxGeometry x="1570" y="900" width="40" height="20" as="geometry" />
        </mxCell>
        <mxCell id="ReeH3Xt1Pkfj4cLhiJu3-9" value="Trainer" style="text;html=1;strokeColor=none;fillColor=none;align=center;verticalAlign=middle;whiteSpace=wrap;rounded=0;" vertex="1" parent="WIyWlLk6GJQsqaUBKTNV-1">
          <mxGeometry x="980" y="910" width="40" height="20" as="geometry" />
        </mxCell>
        <mxCell id="ReeH3Xt1Pkfj4cLhiJu3-10" value="Booking" style="text;html=1;strokeColor=none;fillColor=none;align=center;verticalAlign=middle;whiteSpace=wrap;rounded=0;" vertex="1" parent="WIyWlLk6GJQsqaUBKTNV-1">
          <mxGeometry x="1270" y="880" width="40" height="20" as="geometry" />
        </mxCell>
        <mxCell id="ReeH3Xt1Pkfj4cLhiJu3-11" value="Service" style="text;html=1;strokeColor=none;fillColor=none;align=center;verticalAlign=middle;whiteSpace=wrap;rounded=0;" vertex="1" parent="WIyWlLk6GJQsqaUBKTNV-1">
          <mxGeometry x="980" y="710" width="40" height="20" as="geometry" />
        </mxCell>
        <mxCell id="ReeH3Xt1Pkfj4cLhiJu3-12" value="Message" style="text;html=1;strokeColor=none;fillColor=none;align=center;verticalAlign=middle;whiteSpace=wrap;rounded=0;" vertex="1" parent="WIyWlLk6GJQsqaUBKTNV-1">
          <mxGeometry x="1200" y="990" width="40" height="20" as="geometry" />
        </mxCell>
        <mxCell id="ReeH3Xt1Pkfj4cLhiJu3-13" value="Review" style="text;html=1;strokeColor=none;fillColor=none;align=center;verticalAlign=middle;whiteSpace=wrap;rounded=0;" vertex="1" parent="WIyWlLk6GJQsqaUBKTNV-1">
          <mxGeometry x="1300" y="660" width="40" height="20" as="geometry" />
        </mxCell>
        <mxCell id="ReeH3Xt1Pkfj4cLhiJu3-14" value="List Excercise" style="text;html=1;strokeColor=none;fillColor=none;align=center;verticalAlign=middle;whiteSpace=wrap;rounded=0;" vertex="1" parent="WIyWlLk6GJQsqaUBKTNV-1">
          <mxGeometry x="1360" y="1070" width="90" height="20" as="geometry" />
        </mxCell>
        <mxCell id="ReeH3Xt1Pkfj4cLhiJu3-15" value="" style="endArrow=none;html=1;entryX=0.011;entryY=0.85;entryDx=0;entryDy=0;entryPerimeter=0;" edge="1" parent="WIyWlLk6GJQsqaUBKTNV-1" target="ReeH3Xt1Pkfj4cLhiJu3-3">
          <mxGeometry width="50" height="50" relative="1" as="geometry">
            <mxPoint x="1060" y="690" as="sourcePoint" />
            <mxPoint x="1110" y="640" as="targetPoint" />
          </mxGeometry>
        </mxCell>
        <mxCell id="ReeH3Xt1Pkfj4cLhiJu3-16" value="" style="endArrow=none;html=1;entryX=1;entryY=1;entryDx=0;entryDy=0;" edge="1" parent="WIyWlLk6GJQsqaUBKTNV-1" target="ReeH3Xt1Pkfj4cLhiJu3-3">
          <mxGeometry width="50" height="50" relative="1" as="geometry">
            <mxPoint x="1580" y="880" as="sourcePoint" />
            <mxPoint x="1630" y="830" as="targetPoint" />
          </mxGeometry>
        </mxCell>
        <mxCell id="ReeH3Xt1Pkfj4cLhiJu3-17" value="" style="endArrow=none;html=1;entryX=-0.011;entryY=0.35;entryDx=0;entryDy=0;entryPerimeter=0;" edge="1" parent="WIyWlLk6GJQsqaUBKTNV-1" target="ReeH3Xt1Pkfj4cLhiJu3-4">
          <mxGeometry width="50" height="50" relative="1" as="geometry">
            <mxPoint x="1350" y="901" as="sourcePoint" />
            <mxPoint x="1520" y="905" as="targetPoint" />
          </mxGeometry>
        </mxCell>
        <mxCell id="ReeH3Xt1Pkfj4cLhiJu3-18" value="" style="endArrow=none;html=1;entryX=0;entryY=0.75;entryDx=0;entryDy=0;exitX=1;exitY=0.25;exitDx=0;exitDy=0;" edge="1" parent="WIyWlLk6GJQsqaUBKTNV-1" source="ReeH3Xt1Pkfj4cLhiJu3-6" target="ReeH3Xt1Pkfj4cLhiJu3-5">
          <mxGeometry width="50" height="50" relative="1" as="geometry">
            <mxPoint x="1060" y="890" as="sourcePoint" />
            <mxPoint x="1110" y="840" as="targetPoint" />
          </mxGeometry>
        </mxCell>
        <mxCell id="ReeH3Xt1Pkfj4cLhiJu3-19" value="" style="endArrow=none;html=1;entryX=0.5;entryY=1;entryDx=0;entryDy=0;exitX=0.5;exitY=0;exitDx=0;exitDy=0;" edge="1" parent="WIyWlLk6GJQsqaUBKTNV-1" source="ReeH3Xt1Pkfj4cLhiJu3-6" target="ReeH3Xt1Pkfj4cLhiJu3-2">
          <mxGeometry width="50" height="50" relative="1" as="geometry">
            <mxPoint x="990" y="890" as="sourcePoint" />
            <mxPoint x="1040" y="840" as="targetPoint" />
          </mxGeometry>
        </mxCell>
        <mxCell id="ReeH3Xt1Pkfj4cLhiJu3-20" value="" style="endArrow=none;html=1;entryX=0.5;entryY=1;entryDx=0;entryDy=0;" edge="1" parent="WIyWlLk6GJQsqaUBKTNV-1" target="ReeH3Xt1Pkfj4cLhiJu3-4">
          <mxGeometry width="50" height="50" relative="1" as="geometry">
            <mxPoint x="1480" y="1050" as="sourcePoint" />
            <mxPoint x="1530" y="1000" as="targetPoint" />
          </mxGeometry>
        </mxCell>
        <mxCell id="ReeH3Xt1Pkfj4cLhiJu3-21" value="" style="endArrow=none;html=1;exitX=0;exitY=0.5;exitDx=0;exitDy=0;entryX=0.5;entryY=1;entryDx=0;entryDy=0;" edge="1" parent="WIyWlLk6GJQsqaUBKTNV-1" source="ReeH3Xt1Pkfj4cLhiJu3-1" target="ReeH3Xt1Pkfj4cLhiJu3-6">
          <mxGeometry width="50" height="50" relative="1" as="geometry">
            <mxPoint x="1300" y="1000" as="sourcePoint" />
            <mxPoint x="980" y="1080" as="targetPoint" />
            <Array as="points">
              <mxPoint x="1000" y="1080" />
            </Array>
          </mxGeometry>
        </mxCell>
        <mxCell id="ReeH3Xt1Pkfj4cLhiJu3-23" value="" style="endArrow=none;html=1;exitX=1;exitY=1;exitDx=0;exitDy=0;entryX=0;entryY=0.5;entryDx=0;entryDy=0;" edge="1" parent="WIyWlLk6GJQsqaUBKTNV-1" source="ReeH3Xt1Pkfj4cLhiJu3-6" target="ReeH3Xt1Pkfj4cLhiJu3-0">
          <mxGeometry width="50" height="50" relative="1" as="geometry">
            <mxPoint x="1300" y="920" as="sourcePoint" />
            <mxPoint x="1350" y="870" as="targetPoint" />
          </mxGeometry>
        </mxCell>
        <mxCell id="ReeH3Xt1Pkfj4cLhiJu3-24" value="" style="endArrow=none;html=1;exitX=1;exitY=0.5;exitDx=0;exitDy=0;entryX=0;entryY=1;entryDx=0;entryDy=0;" edge="1" parent="WIyWlLk6GJQsqaUBKTNV-1" source="ReeH3Xt1Pkfj4cLhiJu3-0" target="ReeH3Xt1Pkfj4cLhiJu3-4">
          <mxGeometry width="50" height="50" relative="1" as="geometry">
            <mxPoint x="1300" y="920" as="sourcePoint" />
            <mxPoint x="1350" y="870" as="targetPoint" />
          </mxGeometry>
        </mxCell>
        <mxCell id="ReeH3Xt1Pkfj4cLhiJu3-25" value="ID" style="ellipse;whiteSpace=wrap;html=1;" vertex="1" parent="WIyWlLk6GJQsqaUBKTNV-1">
          <mxGeometry x="1590" y="760" width="60" height="40" as="geometry" />
        </mxCell>
        <mxCell id="ReeH3Xt1Pkfj4cLhiJu3-26" value="Phone" style="ellipse;whiteSpace=wrap;html=1;" vertex="1" parent="WIyWlLk6GJQsqaUBKTNV-1">
          <mxGeometry x="1710" y="820" width="60" height="40" as="geometry" />
        </mxCell>
        <mxCell id="ReeH3Xt1Pkfj4cLhiJu3-27" value="Age" style="ellipse;whiteSpace=wrap;html=1;" vertex="1" parent="WIyWlLk6GJQsqaUBKTNV-1">
          <mxGeometry x="1710" y="880" width="60" height="40" as="geometry" />
        </mxCell>
        <mxCell id="ReeH3Xt1Pkfj4cLhiJu3-28" value="Name" style="ellipse;whiteSpace=wrap;html=1;" vertex="1" parent="WIyWlLk6GJQsqaUBKTNV-1">
          <mxGeometry x="1660" y="780" width="60" height="40" as="geometry" />
        </mxCell>
        <mxCell id="ReeH3Xt1Pkfj4cLhiJu3-29" value="Target" style="ellipse;whiteSpace=wrap;html=1;" vertex="1" parent="WIyWlLk6GJQsqaUBKTNV-1">
          <mxGeometry x="1710" y="930" width="60" height="40" as="geometry" />
        </mxCell>
        <mxCell id="ReeH3Xt1Pkfj4cLhiJu3-30" value="Height" style="ellipse;whiteSpace=wrap;html=1;" vertex="1" parent="WIyWlLk6GJQsqaUBKTNV-1">
          <mxGeometry x="1700" y="980" width="60" height="40" as="geometry" />
        </mxCell>
        <mxCell id="ReeH3Xt1Pkfj4cLhiJu3-31" value="Weight" style="ellipse;whiteSpace=wrap;html=1;" vertex="1" parent="WIyWlLk6GJQsqaUBKTNV-1">
          <mxGeometry x="1660" y="1030" width="60" height="40" as="geometry" />
        </mxCell>
        <mxCell id="ReeH3Xt1Pkfj4cLhiJu3-32" value="" style="endArrow=none;html=1;entryX=0.5;entryY=1;entryDx=0;entryDy=0;exitX=0.75;exitY=0;exitDx=0;exitDy=0;" edge="1" parent="WIyWlLk6GJQsqaUBKTNV-1" source="ReeH3Xt1Pkfj4cLhiJu3-4" target="ReeH3Xt1Pkfj4cLhiJu3-25">
          <mxGeometry width="50" height="50" relative="1" as="geometry">
            <mxPoint x="1600" y="880" as="sourcePoint" />
            <mxPoint x="1650" y="830" as="targetPoint" />
          </mxGeometry>
        </mxCell>
        <mxCell id="ReeH3Xt1Pkfj4cLhiJu3-33" value="" style="endArrow=none;html=1;entryX=0;entryY=1;entryDx=0;entryDy=0;" edge="1" parent="WIyWlLk6GJQsqaUBKTNV-1" target="ReeH3Xt1Pkfj4cLhiJu3-28">
          <mxGeometry width="50" height="50" relative="1" as="geometry">
            <mxPoint x="1650" y="880" as="sourcePoint" />
            <mxPoint x="1670" y="850" as="targetPoint" />
          </mxGeometry>
        </mxCell>
        <mxCell id="ReeH3Xt1Pkfj4cLhiJu3-34" value="" style="endArrow=none;html=1;entryX=0;entryY=0.5;entryDx=0;entryDy=0;" edge="1" parent="WIyWlLk6GJQsqaUBKTNV-1" target="ReeH3Xt1Pkfj4cLhiJu3-26">
          <mxGeometry width="50" height="50" relative="1" as="geometry">
            <mxPoint x="1650" y="890" as="sourcePoint" />
            <mxPoint x="1690" y="840" as="targetPoint" />
          </mxGeometry>
        </mxCell>
        <mxCell id="ReeH3Xt1Pkfj4cLhiJu3-35" value="" style="endArrow=none;html=1;entryX=0;entryY=0.5;entryDx=0;entryDy=0;" edge="1" parent="WIyWlLk6GJQsqaUBKTNV-1" target="ReeH3Xt1Pkfj4cLhiJu3-27">
          <mxGeometry width="50" height="50" relative="1" as="geometry">
            <mxPoint x="1650" y="900" as="sourcePoint" />
            <mxPoint x="1690" y="850" as="targetPoint" />
          </mxGeometry>
        </mxCell>
        <mxCell id="ReeH3Xt1Pkfj4cLhiJu3-36" value="" style="endArrow=none;html=1;entryX=0;entryY=0;entryDx=0;entryDy=0;" edge="1" parent="WIyWlLk6GJQsqaUBKTNV-1" target="ReeH3Xt1Pkfj4cLhiJu3-29">
          <mxGeometry width="50" height="50" relative="1" as="geometry">
            <mxPoint x="1650" y="915" as="sourcePoint" />
            <mxPoint x="1690" y="865" as="targetPoint" />
          </mxGeometry>
        </mxCell>
        <mxCell id="ReeH3Xt1Pkfj4cLhiJu3-37" value="" style="endArrow=none;html=1;entryX=0;entryY=0.5;entryDx=0;entryDy=0;" edge="1" parent="WIyWlLk6GJQsqaUBKTNV-1" target="ReeH3Xt1Pkfj4cLhiJu3-30">
          <mxGeometry width="50" height="50" relative="1" as="geometry">
            <mxPoint x="1650" y="940" as="sourcePoint" />
            <mxPoint x="1690" y="890" as="targetPoint" />
          </mxGeometry>
        </mxCell>
        <mxCell id="ReeH3Xt1Pkfj4cLhiJu3-38" value="" style="endArrow=none;html=1;entryX=0;entryY=0.5;entryDx=0;entryDy=0;" edge="1" parent="WIyWlLk6GJQsqaUBKTNV-1" target="ReeH3Xt1Pkfj4cLhiJu3-31">
          <mxGeometry width="50" height="50" relative="1" as="geometry">
            <mxPoint x="1620" y="940" as="sourcePoint" />
            <mxPoint x="1660" y="890" as="targetPoint" />
          </mxGeometry>
        </mxCell>
      </root>
    </mxGraphModel>
  </diagram>
</mxfile>
